<?xml version="1.0" encoding="UTF-8" standalone="no"?>
<!DOCTYPE svg PUBLIC "-//W3C//DTD SVG 1.1//EN"
 "http://www.w3.org/Graphics/SVG/1.1/DTD/svg11.dtd">
<!-- Generated by graphviz version 14.1.1 (20251213.1925)
 -->
<!-- Title: InheritanceTree Pages: 1 -->
<svg width="534pt" height="861pt"
 viewBox="0.00 0.00 534.00 861.00" xmlns="http://www.w3.org/2000/svg" xmlns:xlink="http://www.w3.org/1999/xlink">
<g id="graph0" class="graph" transform="scale(1 1) rotate(0) translate(4 856.5)">
<title>InheritanceTree</title>
<polygon fill="white" stroke="none" points="-4,4 -4,-856.5 530.25,-856.5 530.25,4 -4,4"/>
<text xml:space="preserve" text-anchor="middle" x="263.12" y="-7.2" font-family="Times New Roman,serif" font-size="14.00">simple_reflection &#45; Inheritance Hierarchy</text>
<!-- SIMPLE_ENUMERATION -->
<g id="node1" class="node">
<title>SIMPLE_ENUMERATION</title>
<path fill="none" stroke="black" d="M508.62,-60.5C508.62,-60.5 362.88,-60.5 362.88,-60.5 356.88,-60.5 350.88,-54.5 350.88,-48.5 350.88,-48.5 350.88,-36.5 350.88,-36.5 350.88,-30.5 356.88,-24.5 362.88,-24.5 362.88,-24.5 508.62,-24.5 508.62,-24.5 514.62,-24.5 520.62,-30.5 520.62,-36.5 520.62,-36.5 520.62,-48.5 520.62,-48.5 520.62,-54.5 514.62,-60.5 508.62,-60.5"/>
<text xml:space="preserve" text-anchor="middle" x="435.75" y="-37.45" font-family="Times New Roman,serif" font-size="14.00">SIMPLE_ENUMERATION</text>
</g>
<!-- SIMPLE_FEATURE_INFO -->
<g id="node2" class="node">
<title>SIMPLE_FEATURE_INFO</title>
<path fill="none" stroke="black" d="M191.12,-132.5C191.12,-132.5 46.12,-132.5 46.12,-132.5 40.12,-132.5 34.12,-126.5 34.12,-120.5 34.12,-120.5 34.12,-108.5 34.12,-108.5 34.12,-102.5 40.12,-96.5 46.12,-96.5 46.12,-96.5 191.12,-96.5 191.12,-96.5 197.12,-96.5 203.12,-102.5 203.12,-108.5 203.12,-108.5 203.12,-120.5 203.12,-120.5 203.12,-126.5 197.12,-132.5 191.12,-132.5"/>
<text xml:space="preserve" text-anchor="middle" x="118.62" y="-109.45" font-family="Times New Roman,serif" font-size="14.00">SIMPLE_FEATURE_INFO</text>
</g>
<!-- SIMPLE_FIELD_INFO -->
<g id="node3" class="node">
<title>SIMPLE_FIELD_INFO</title>
<path fill="none" stroke="black" d="M180.62,-204.5C180.62,-204.5 56.62,-204.5 56.62,-204.5 50.62,-204.5 44.62,-198.5 44.62,-192.5 44.62,-192.5 44.62,-180.5 44.62,-180.5 44.62,-174.5 50.62,-168.5 56.62,-168.5 56.62,-168.5 180.62,-168.5 180.62,-168.5 186.62,-168.5 192.62,-174.5 192.62,-180.5 192.62,-180.5 192.62,-192.5 192.62,-192.5 192.62,-198.5 186.62,-204.5 180.62,-204.5"/>
<text xml:space="preserve" text-anchor="middle" x="118.62" y="-181.45" font-family="Times New Roman,serif" font-size="14.00">SIMPLE_FIELD_INFO</text>
</g>
<!-- SIMPLE_FLAGS -->
<g id="node4" class="node">
<title>SIMPLE_FLAGS</title>
<path fill="none" stroke="black" d="M480.88,-276.5C480.88,-276.5 390.62,-276.5 390.62,-276.5 384.62,-276.5 378.62,-270.5 378.62,-264.5 378.62,-264.5 378.62,-252.5 378.62,-252.5 378.62,-246.5 384.62,-240.5 390.62,-240.5 390.62,-240.5 480.88,-240.5 480.88,-240.5 486.88,-240.5 492.88,-246.5 492.88,-252.5 492.88,-252.5 492.88,-264.5 492.88,-264.5 492.88,-270.5 486.88,-276.5 480.88,-276.5"/>
<text xml:space="preserve" text-anchor="middle" x="435.75" y="-253.45" font-family="Times New Roman,serif" font-size="14.00">SIMPLE_FLAGS</text>
</g>
<!-- SIMPLE_OBJECT_GRAPH_WALKER -->
<g id="node5" class="node">
<title>SIMPLE_OBJECT_GRAPH_WALKER</title>
<path fill="none" stroke="black" d="M225.25,-348.5C225.25,-348.5 12,-348.5 12,-348.5 6,-348.5 0,-342.5 0,-336.5 0,-336.5 0,-324.5 0,-324.5 0,-318.5 6,-312.5 12,-312.5 12,-312.5 225.25,-312.5 225.25,-312.5 231.25,-312.5 237.25,-318.5 237.25,-324.5 237.25,-324.5 237.25,-336.5 237.25,-336.5 237.25,-342.5 231.25,-348.5 225.25,-348.5"/>
<text xml:space="preserve" text-anchor="middle" x="118.62" y="-325.45" font-family="Times New Roman,serif" font-size="14.00">SIMPLE_OBJECT_GRAPH_WALKER</text>
</g>
<!-- SIMPLE_OBJECT_VISITOR -->
<g id="node6" class="node">
<title>SIMPLE_OBJECT_VISITOR</title>
<path fill="none" stroke="black" d="M514.25,-420.5C514.25,-420.5 357.25,-420.5 357.25,-420.5 351.25,-420.5 345.25,-414.5 345.25,-408.5 345.25,-408.5 345.25,-396.5 345.25,-396.5 345.25,-390.5 351.25,-384.5 357.25,-384.5 357.25,-384.5 514.25,-384.5 514.25,-384.5 520.25,-384.5 526.25,-390.5 526.25,-396.5 526.25,-396.5 526.25,-408.5 526.25,-408.5 526.25,-414.5 520.25,-420.5 514.25,-420.5"/>
<text xml:space="preserve" text-anchor="middle" x="435.75" y="-397.45" font-family="Times New Roman,serif" font-size="14.00">SIMPLE_OBJECT_VISITOR</text>
</g>
<!-- SIMPLE_REFLECTED_OBJECT -->
<g id="node7" class="node">
<title>SIMPLE_REFLECTED_OBJECT</title>
<path fill="none" stroke="black" d="M208.75,-492.5C208.75,-492.5 28.5,-492.5 28.5,-492.5 22.5,-492.5 16.5,-486.5 16.5,-480.5 16.5,-480.5 16.5,-468.5 16.5,-468.5 16.5,-462.5 22.5,-456.5 28.5,-456.5 28.5,-456.5 208.75,-456.5 208.75,-456.5 214.75,-456.5 220.75,-462.5 220.75,-468.5 220.75,-468.5 220.75,-480.5 220.75,-480.5 220.75,-486.5 214.75,-492.5 208.75,-492.5"/>
<text xml:space="preserve" text-anchor="middle" x="118.62" y="-469.45" font-family="Times New Roman,serif" font-size="14.00">SIMPLE_REFLECTED_OBJECT</text>
</g>
<!-- SIMPLE_TYPE_INFO -->
<g id="node8" class="node">
<title>SIMPLE_TYPE_INFO</title>
<path fill="none" stroke="black" d="M178.38,-564.5C178.38,-564.5 58.88,-564.5 58.88,-564.5 52.88,-564.5 46.88,-558.5 46.88,-552.5 46.88,-552.5 46.88,-540.5 46.88,-540.5 46.88,-534.5 52.88,-528.5 58.88,-528.5 58.88,-528.5 178.38,-528.5 178.38,-528.5 184.38,-528.5 190.38,-534.5 190.38,-540.5 190.38,-540.5 190.38,-552.5 190.38,-552.5 190.38,-558.5 184.38,-564.5 178.38,-564.5"/>
<text xml:space="preserve" text-anchor="middle" x="118.62" y="-541.45" font-family="Times New Roman,serif" font-size="14.00">SIMPLE_TYPE_INFO</text>
</g>
<!-- SIMPLE_TYPE_REGISTRY -->
<g id="node9" class="node">
<title>SIMPLE_TYPE_REGISTRY</title>
<path fill="none" stroke="black" d="M195.25,-636.5C195.25,-636.5 42,-636.5 42,-636.5 36,-636.5 30,-630.5 30,-624.5 30,-624.5 30,-612.5 30,-612.5 30,-606.5 36,-600.5 42,-600.5 42,-600.5 195.25,-600.5 195.25,-600.5 201.25,-600.5 207.25,-606.5 207.25,-612.5 207.25,-612.5 207.25,-624.5 207.25,-624.5 207.25,-630.5 201.25,-636.5 195.25,-636.5"/>
<text xml:space="preserve" text-anchor="middle" x="118.62" y="-613.45" font-family="Times New Roman,serif" font-size="14.00">SIMPLE_TYPE_REGISTRY</text>
</g>
<!-- ADVERSARIAL_TESTS -->
<g id="node10" class="node">
<title>ADVERSARIAL_TESTS</title>
<path fill="none" stroke="black" d="M185.5,-780.5C185.5,-780.5 51.75,-780.5 51.75,-780.5 45.75,-780.5 39.75,-774.5 39.75,-768.5 39.75,-768.5 39.75,-756.5 39.75,-756.5 39.75,-750.5 45.75,-744.5 51.75,-744.5 51.75,-744.5 185.5,-744.5 185.5,-744.5 191.5,-744.5 197.5,-750.5 197.5,-756.5 197.5,-756.5 197.5,-768.5 197.5,-768.5 197.5,-774.5 191.5,-780.5 185.5,-780.5"/>
<text xml:space="preserve" text-anchor="middle" x="118.62" y="-757.45" font-family="Times New Roman,serif" font-size="14.00">ADVERSARIAL_TESTS</text>
</g>
<!-- EQA_TEST_SET -->
<g id="node11" class="node">
<title>EQA_TEST_SET</title>
<path fill="none" stroke="black" d="M480.5,-744.5C480.5,-744.5 391,-744.5 391,-744.5 385,-744.5 379,-738.5 379,-732.5 379,-732.5 379,-720.5 379,-720.5 379,-714.5 385,-708.5 391,-708.5 391,-708.5 480.5,-708.5 480.5,-708.5 486.5,-708.5 492.5,-714.5 492.5,-720.5 492.5,-720.5 492.5,-732.5 492.5,-732.5 492.5,-738.5 486.5,-744.5 480.5,-744.5"/>
<text xml:space="preserve" text-anchor="middle" x="435.75" y="-721.45" font-family="Times New Roman,serif" font-size="14.00">EQA_TEST_SET</text>
</g>
<!-- ADVERSARIAL_TESTS&#45;&gt;EQA_TEST_SET -->
<g id="edge1" class="edge">
<title>ADVERSARIAL_TESTS&#45;&gt;EQA_TEST_SET</title>
<path fill="none" stroke="black" d="M179.25,-744.01C179.25,-737.84 179.25,-732.5 179.25,-732.5 179.25,-732.5 366.99,-732.5 366.99,-732.5"/>
<polygon fill="none" stroke="black" points="366.99,-736 376.99,-732.5 366.99,-729 366.99,-736"/>
</g>
<!-- LIB_TESTS -->
<g id="node12" class="node">
<title>LIB_TESTS</title>
<path fill="none" stroke="black" d="M148.75,-708.5C148.75,-708.5 88.5,-708.5 88.5,-708.5 82.5,-708.5 76.5,-702.5 76.5,-696.5 76.5,-696.5 76.5,-684.5 76.5,-684.5 76.5,-678.5 82.5,-672.5 88.5,-672.5 88.5,-672.5 148.75,-672.5 148.75,-672.5 154.75,-672.5 160.75,-678.5 160.75,-684.5 160.75,-684.5 160.75,-696.5 160.75,-696.5 160.75,-702.5 154.75,-708.5 148.75,-708.5"/>
<text xml:space="preserve" text-anchor="middle" x="118.62" y="-685.45" font-family="Times New Roman,serif" font-size="14.00">LIB_TESTS</text>
</g>
<!-- LIB_TESTS&#45;&gt;EQA_TEST_SET -->
<g id="edge2" class="edge">
<title>LIB_TESTS&#45;&gt;EQA_TEST_SET</title>
<path fill="none" stroke="black" d="M118.25,-708.99C118.25,-715.16 118.25,-720.5 118.25,-720.5 118.25,-720.5 367.11,-720.5 367.11,-720.5"/>
<polygon fill="none" stroke="black" points="367.11,-724 377.11,-720.5 367.11,-717 367.11,-724"/>
</g>
<!-- TEST_COUNTING_VISITOR -->
<g id="node13" class="node">
<title>TEST_COUNTING_VISITOR</title>
<path fill="none" stroke="black" d="M199.38,-420.5C199.38,-420.5 37.88,-420.5 37.88,-420.5 31.88,-420.5 25.88,-414.5 25.88,-408.5 25.88,-408.5 25.88,-396.5 25.88,-396.5 25.88,-390.5 31.88,-384.5 37.88,-384.5 37.88,-384.5 199.38,-384.5 199.38,-384.5 205.38,-384.5 211.38,-390.5 211.38,-396.5 211.38,-396.5 211.38,-408.5 211.38,-408.5 211.38,-414.5 205.38,-420.5 199.38,-420.5"/>
<text xml:space="preserve" text-anchor="middle" x="118.62" y="-397.45" font-family="Times New Roman,serif" font-size="14.00">TEST_COUNTING_VISITOR</text>
</g>
<!-- TEST_COUNTING_VISITOR&#45;&gt;SIMPLE_OBJECT_VISITOR -->
<g id="edge3" class="edge">
<title>TEST_COUNTING_VISITOR&#45;&gt;SIMPLE_OBJECT_VISITOR</title>
<path fill="none" stroke="black" d="M211.63,-402.5C211.63,-402.5 333.42,-402.5 333.42,-402.5"/>
<polygon fill="none" stroke="black" points="333.42,-406 343.42,-402.5 333.42,-399 333.42,-406"/>
</g>
<!-- TEST_PERMISSION_FLAGS -->
<g id="node14" class="node">
<title>TEST_PERMISSION_FLAGS</title>
<path fill="none" stroke="black" d="M199.38,-276.5C199.38,-276.5 37.88,-276.5 37.88,-276.5 31.88,-276.5 25.88,-270.5 25.88,-264.5 25.88,-264.5 25.88,-252.5 25.88,-252.5 25.88,-246.5 31.88,-240.5 37.88,-240.5 37.88,-240.5 199.38,-240.5 199.38,-240.5 205.38,-240.5 211.38,-246.5 211.38,-252.5 211.38,-252.5 211.38,-264.5 211.38,-264.5 211.38,-270.5 205.38,-276.5 199.38,-276.5"/>
<text xml:space="preserve" text-anchor="middle" x="118.62" y="-253.45" font-family="Times New Roman,serif" font-size="14.00">TEST_PERMISSION_FLAGS</text>
</g>
<!-- TEST_PERMISSION_FLAGS&#45;&gt;SIMPLE_FLAGS -->
<g id="edge4" class="edge">
<title>TEST_PERMISSION_FLAGS&#45;&gt;SIMPLE_FLAGS</title>
<path fill="none" stroke="black" d="M211.63,-258.5C211.63,-258.5 366.64,-258.5 366.64,-258.5"/>
<polygon fill="none" stroke="black" points="366.64,-262 376.64,-258.5 366.64,-255 366.64,-262"/>
</g>
<!-- TEST_SIMPLE_OBJECT -->
<g id="node15" class="node">
<title>TEST_SIMPLE_OBJECT</title>
<path fill="none" stroke="black" d="M186.62,-852.5C186.62,-852.5 50.62,-852.5 50.62,-852.5 44.62,-852.5 38.62,-846.5 38.62,-840.5 38.62,-840.5 38.62,-828.5 38.62,-828.5 38.62,-822.5 44.62,-816.5 50.62,-816.5 50.62,-816.5 186.62,-816.5 186.62,-816.5 192.62,-816.5 198.62,-822.5 198.62,-828.5 198.62,-828.5 198.62,-840.5 198.62,-840.5 198.62,-846.5 192.62,-852.5 186.62,-852.5"/>
<text xml:space="preserve" text-anchor="middle" x="118.62" y="-829.45" font-family="Times New Roman,serif" font-size="14.00">TEST_SIMPLE_OBJECT</text>
</g>
<!-- TEST_STATUS_ENUM -->
<g id="node16" class="node">
<title>TEST_STATUS_ENUM</title>
<path fill="none" stroke="black" d="M182.12,-60.5C182.12,-60.5 55.12,-60.5 55.12,-60.5 49.12,-60.5 43.12,-54.5 43.12,-48.5 43.12,-48.5 43.12,-36.5 43.12,-36.5 43.12,-30.5 49.12,-24.5 55.12,-24.5 55.12,-24.5 182.12,-24.5 182.12,-24.5 188.12,-24.5 194.12,-30.5 194.12,-36.5 194.12,-36.5 194.12,-48.5 194.12,-48.5 194.12,-54.5 188.12,-60.5 182.12,-60.5"/>
<text xml:space="preserve" text-anchor="middle" x="118.62" y="-37.45" font-family="Times New Roman,serif" font-size="14.00">TEST_STATUS_ENUM</text>
</g>
<!-- TEST_STATUS_ENUM&#45;&gt;SIMPLE_ENUMERATION -->
<g id="edge5" class="edge">
<title>TEST_STATUS_ENUM&#45;&gt;SIMPLE_ENUMERATION</title>
<path fill="none" stroke="black" d="M194.58,-42.5C194.58,-42.5 339.12,-42.5 339.12,-42.5"/>
<polygon fill="none" stroke="black" points="339.12,-46 349.12,-42.5 339.12,-39 339.12,-46"/>
</g>
</g>
</svg>
