<?xml version="1.0" encoding="UTF-8" standalone="no"?>
<!DOCTYPE svg PUBLIC "-//W3C//DTD SVG 1.1//EN"
 "http://www.w3.org/Graphics/SVG/1.1/DTD/svg11.dtd">
<!-- Generated by graphviz version 14.1.1 (20251213.1925)
 -->
<!-- Title: Dependencies Pages: 1 -->
<svg width="361pt" height="213pt"
 viewBox="0.00 0.00 361.00 213.00" xmlns="http://www.w3.org/2000/svg" xmlns:xlink="http://www.w3.org/1999/xlink">
<g id="graph0" class="graph" transform="scale(1 1) rotate(0) translate(4 208.5)">
<title>Dependencies</title>
<polygon fill="white" stroke="none" points="-4,4 -4,-208.5 357,-208.5 357,4 -4,4"/>
<text xml:space="preserve" text-anchor="middle" x="176.5" y="-7.2" font-family="Times New Roman,serif" font-size="14.00">simple_reflection &#45; Dependencies</text>
<!-- simple_reflection -->
<g id="node1" class="node">
<title>simple_reflection</title>
<polygon fill="lightblue" stroke="black" points="111.25,-132.5 0,-132.5 0,-96.5 111.25,-96.5 111.25,-132.5"/>
<text xml:space="preserve" text-anchor="middle" x="55.62" y="-109.45" font-family="Times New Roman,serif" font-size="14.00">simple_reflection</text>
</g>
<!-- simple_factory -->
<g id="node2" class="node">
<title>simple_factory</title>
<polygon fill="lightblue" stroke="black" points="353,-204.5 255.25,-204.5 255.25,-168.5 353,-168.5 353,-204.5"/>
<text xml:space="preserve" text-anchor="middle" x="304.12" y="-181.45" font-family="Times New Roman,serif" font-size="14.00">simple_factory</text>
</g>
<!-- simple_reflection&#45;&gt;simple_factory -->
<g id="edge1" class="edge">
<title>simple_reflection&#45;&gt;simple_factory</title>
<path fill="none" stroke="black" stroke-dasharray="5,2" d="M111.73,-120.5C174.05,-120.5 266,-120.5 266,-120.5 266,-120.5 266,-156.6 266,-156.6"/>
<polygon fill="black" stroke="black" points="262.5,-156.6 266,-166.6 269.5,-156.6 262.5,-156.6"/>
</g>
<!-- base -->
<g id="node3" class="node">
<title>base</title>
<polygon fill="lightgray" stroke="black" points="331.12,-132.5 277.12,-132.5 277.12,-96.5 331.12,-96.5 331.12,-132.5"/>
<text xml:space="preserve" text-anchor="middle" x="304.12" y="-109.45" font-family="Times New Roman,serif" font-size="14.00">base</text>
</g>
<!-- simple_reflection&#45;&gt;base -->
<g id="edge2" class="edge">
<title>simple_reflection&#45;&gt;base</title>
<path fill="none" stroke="black" stroke-dasharray="5,2" d="M111.7,-108.5C111.7,-108.5 265.43,-108.5 265.43,-108.5"/>
<polygon fill="black" stroke="black" points="265.43,-112 275.43,-108.5 265.43,-105 265.43,-112"/>
</g>
<!-- testing -->
<g id="node4" class="node">
<title>testing</title>
<polygon fill="lightgray" stroke="black" points="331.12,-60.5 277.12,-60.5 277.12,-24.5 331.12,-24.5 331.12,-60.5"/>
<text xml:space="preserve" text-anchor="middle" x="304.12" y="-37.45" font-family="Times New Roman,serif" font-size="14.00">testing</text>
</g>
<!-- simple_reflection&#45;&gt;testing -->
<g id="edge3" class="edge">
<title>simple_reflection&#45;&gt;testing</title>
<path fill="none" stroke="black" stroke-dasharray="5,2" d="M56,-96.33C56,-75 56,-42.5 56,-42.5 56,-42.5 265.59,-42.5 265.59,-42.5"/>
<polygon fill="black" stroke="black" points="265.59,-46 275.59,-42.5 265.59,-39 265.59,-46"/>
</g>
</g>
</svg>
